<?xml version="1.0" encoding="UTF-8" standalone="no"?>
<!DOCTYPE svg PUBLIC "-//W3C//DTD SVG 1.1//EN" "http://www.w3.org/Graphics/SVG/1.1/DTD/svg11.dtd">
<svg width="100%" height="100%" viewBox="0 0 300 300" version="1.1" xmlns="http://www.w3.org/2000/svg" xmlns:xlink="http://www.w3.org/1999/xlink" xml:space="preserve" xmlns:serif="http://www.serif.com/" style="fill-rule:evenodd;clip-rule:evenodd;stroke-linejoin:round;stroke-miterlimit:2;user-select: none;">
  <g id="ticket">
    <g id="stub">
      <g id="stubBackground" transform="matrix(1.13574,0,0,1,-32.7365,0.204182)">
        <path style="fill:#532775;" d="M266.04,199.796L274.826,199.796C274.826,210.834 282.7,219.796 292.398,219.796L292.968,219.763L292.968,284.428C292.968,292.91 286.918,299.796 279.466,299.796L42.326,299.796C34.874,299.796 28.824,292.91 28.824,284.428L28.824,219.796C38.522,219.796 46.395,210.834 46.395,199.796L55.181,199.796L55.181,200.796L59.583,200.796L59.583,199.796L63.105,199.796L63.105,200.796L67.507,200.796L67.507,199.796L71.029,199.796L71.029,200.796L75.431,200.796L75.431,199.796L78.952,199.796L78.952,200.796L83.354,200.796L83.354,199.796L86.876,199.796L86.876,200.796L91.278,200.796L91.278,199.796L94.8,199.796L94.8,200.796L99.202,200.796L99.202,199.796L102.724,199.796L102.724,200.796L107.126,200.796L107.126,199.796L110.647,199.796L110.647,200.796L115.049,200.796L115.049,199.796L118.571,199.796L118.571,200.796L122.973,200.796L122.973,199.796L126.495,199.796L126.495,200.796L130.897,200.796L130.897,199.796L134.418,199.796L134.418,200.796L138.821,200.796L138.821,199.796L142.342,199.796L142.342,200.796L146.744,200.796L146.744,199.796L150.266,199.796L150.266,200.796L154.668,200.796L154.668,199.796L158.19,199.796L158.19,200.796L162.592,200.796L162.592,199.796L166.113,199.796L166.113,200.796L170.515,200.796L170.515,199.796L174.037,199.796L174.037,200.796L178.439,200.796L178.439,199.796L181.961,199.796L181.961,200.796L186.363,200.796L186.363,199.796L189.885,199.796L189.885,200.796L194.287,200.796L194.287,199.796L197.808,199.796L197.808,200.796L202.21,200.796L202.21,199.796L205.732,199.796L205.732,200.796L210.134,200.796L210.134,199.796L214.096,199.796L214.096,200.796L218.498,200.796L218.498,199.796L222.02,199.796L222.02,200.796L226.422,200.796L226.422,199.796L229.943,199.796L229.943,200.796L234.345,200.796L234.345,199.796L237.867,199.796L237.867,200.796L242.269,200.796L242.269,199.796L245.791,199.796L245.791,200.796L250.193,200.796L250.193,199.796L253.714,199.796L253.714,200.796L258.117,200.796L258.117,199.796L261.638,199.796L261.638,200.796L266.04,200.796L266.04,199.796Z" />
      </g>
      <g id="stubDetails">
        <g id="stubTicketTypeText" transform="matrix(0.160667,0,0,0.160667,66.1511,212.911)">
          <text x="63.752px" y="413.285px" style="font-family:'BalooDa2-ExtraBold', 'Baloo Da 2';font-weight:800;font-size:108px;fill:#FF9200;">General Admission</text>
        </g>
        <g id="stubTicketNumberText" transform="matrix(0.489601,0,0,0.489601,36.3616,34.5613)">
          <text x="79.77px" y="462.24px" style="font-family:'BalooDa2-ExtraBold', 'Baloo Da 2';font-weight:800;font-size:108px;fill:#FFF;">#1002</text>
        </g>
      </g>
    </g>
    <g id="top">
      <g id="topBackground" transform="matrix(0.99784,0,0,1,2.87767e-18,0)">
        <path style="fill:#532775;" d="M30,200L20,200C20,188.962 11.038,180 0,180L0,15.368C0,6.886 6.886,0 15.368,0L285.281,0C293.763,0 300.649,6.886 300.649,15.368L300.649,180.033L300,180C288.962,180 280,188.962 280,200L270,200L270,199L264.99,199L264.99,200L260.981,200L260.981,199L255.971,199L255.971,200L251.962,200L251.962,199L246.952,199L246.952,200L242.944,200L242.944,199L237.933,199L237.933,200L233.925,200L233.925,199L228.914,199L228.914,200L224.906,200L224.906,199L219.896,199L219.896,200L215.887,200L215.887,199L210.877,199L210.877,200L206.367,200L206.367,199L201.357,199L201.357,200L197.349,200L197.349,199L192.338,199L192.338,200L188.33,200L188.33,199L183.319,199L183.319,200L179.311,200L179.311,199L174.301,199L174.301,200L170.292,200L170.292,199L165.282,199L165.282,200L161.273,200L161.273,199L156.263,199L156.263,200L152.255,200L152.255,199L147.244,199L147.244,200L143.236,200L143.236,199L138.225,199L138.225,200L134.217,200L134.217,199L129.207,199L129.207,200L125.198,200L125.198,199L120.188,199L120.188,200L116.18,200L116.18,199L111.169,199L111.169,200L107.161,200L107.161,199L102.15,199L102.15,200L98.142,200L98.142,199L93.132,199L93.132,200L89.123,200L89.123,199L84.113,199L84.113,200L80.104,200L80.104,199L75.094,199L75.094,200L71.086,200L71.086,199L66.075,199L66.075,200L62.067,200L62.067,199L57.056,199L57.056,200L53.048,200L53.048,199L48.038,199L48.038,200L44.029,200L44.029,199L39.019,199L39.019,200L35.01,200L35.01,199L30,199L30,200Z" />
      </g>
      <g id="topDetails">
        <g id="topTicketNumberText" transform="matrix(0.759459,0,0,0.759459,-133.783,-6.84609)">
          <text x="445.772px" y="205.594px" style="font-family:'BalooDa2-ExtraBold', 'Baloo Da 2';font-weight:800;font-size:35px;fill:#FF9200;">#1002</text>
        </g>
        <g id="eventTypeText" transform="matrix(0.955615,0,0,0.891404,95.3799,-63.3668)">
          <text x="31.875px" y="238.418px" style="font-family:'BalooDa2-Regular', 'Baloo Da 2';font-size:28px;fill:#FFF;">GA</text>
        </g>
        <g id="dateText" transform="matrix(0.955615,0,0,0.891404,-10.8904,-63.3668)">
          <text x="31.875px" y="238.418px" style="font-family:'BalooDa2-Regular', 'Baloo Da 2';font-size:28px;fill:#FFF;">10 DEC</text>
        </g>
        <g id="outline" transform="matrix(1,0,0,1,0,10)">
          <path d="M113.947,111.81L113.947,144.83L116.435,144.83L116.435,111.81L280,111.81L280,109.323L20,109.323L20,111.81L113.947,111.81Z" style="fill:#FFF;"/>
        </g>
        <g id="eventName" transform="matrix(0.331472,0,0,0.331472,152.449,43.5742)">
          <path id="_01F" d="M142.518,87.342L173.881,87.342L173.881,98.119L154.373,98.119L154.373,119.136L169.678,119.136L169.678,129.914L154.373,129.914L154.373,162.786L142.518,162.786L142.518,87.342Z" style="fill:#FF9200;fill-rule:nonzero;"/>
          <path id="_02O" d="M196.73,163.864C190.91,163.864 186.455,162.212 183.366,158.906C180.276,155.601 178.731,150.931 178.731,144.895L178.731,105.233C178.731,99.197 180.276,94.527 183.366,91.222C186.455,87.916 190.91,86.264 196.73,86.264C202.55,86.264 207.005,87.916 210.095,91.222C213.184,94.527 214.729,99.197 214.729,105.233L214.729,144.895C214.729,150.931 213.184,155.601 210.095,158.906C207.005,162.212 202.55,163.864 196.73,163.864ZM196.73,153.086C200.826,153.086 202.873,150.607 202.873,145.65L202.873,104.478C202.873,99.521 200.826,97.042 196.73,97.042C192.634,97.042 190.587,99.521 190.587,104.478L190.587,145.65C190.587,150.607 192.634,153.086 196.73,153.086Z" style="fill:#FF9200;fill-rule:nonzero;"/>
          <path id="_03X" d="M231.435,124.202L218.393,87.342L230.896,87.342L238.871,111.7L239.087,111.7L247.278,87.342L258.487,87.342L245.446,124.202L259.134,162.786L246.631,162.786L238.009,136.489L237.794,136.489L228.956,162.786L217.747,162.786L231.435,124.202Z" style="fill:#FF9200;fill-rule:nonzero;"/>
          <path id="_04C" d="M279.719,163.864C274.043,163.864 269.714,162.248 266.732,159.014C263.75,155.781 262.259,151.218 262.259,145.326L262.259,104.802C262.259,98.91 263.75,94.347 266.732,91.114C269.714,87.88 274.043,86.264 279.719,86.264C285.396,86.264 289.725,87.88 292.707,91.114C295.689,94.347 297.179,98.91 297.179,104.802L297.179,112.777L285.971,112.777L285.971,104.047C285.971,99.377 283.995,97.042 280.043,97.042C276.091,97.042 274.115,99.377 274.115,104.047L274.115,146.189C274.115,150.787 276.091,153.086 280.043,153.086C283.995,153.086 285.971,150.787 285.971,146.189L285.971,134.656L297.179,134.656L297.179,145.326C297.179,151.218 295.689,155.781 292.707,159.014C289.725,162.248 285.396,163.864 279.719,163.864Z" style="fill:#FF9200;fill-rule:nonzero;"/>
          <path id="_05O" d="M321.645,163.864C315.825,163.864 311.37,162.212 308.281,158.906C305.191,155.601 303.646,150.931 303.646,144.895L303.646,105.233C303.646,99.197 305.191,94.527 308.281,91.222C311.37,87.916 315.825,86.264 321.645,86.264C327.465,86.264 331.92,87.916 335.01,91.222C338.099,94.527 339.644,99.197 339.644,105.233L339.644,144.895C339.644,150.931 338.099,155.601 335.01,158.906C331.92,162.212 327.465,163.864 321.645,163.864ZM321.645,153.086C325.741,153.086 327.789,150.607 327.789,145.65L327.789,104.478C327.789,99.521 325.741,97.042 321.645,97.042C317.55,97.042 315.502,99.521 315.502,104.478L315.502,145.65C315.502,150.607 317.55,153.086 321.645,153.086Z" style="fill:#FF9200;fill-rule:nonzero;"/>
          <path id="_06N" d="M347.62,87.342L362.493,87.342L374.025,132.501L374.241,132.501L374.241,87.342L384.803,87.342L384.803,162.786L372.624,162.786L358.398,107.712L358.182,107.712L358.182,162.786L347.62,162.786L347.62,87.342Z" style="fill:#FF9200;fill-rule:nonzero;"/>
        </g>
        <g id="eventYear" transform="matrix(3.29803,0,0,3.29803,756.272,-907.493)">
          <path id="year012" d="M-177.403,284.925C-177.403,284.551 -177.283,284.245 -177.043,284.005C-176.803,283.765 -176.467,283.583 -176.035,283.461C-175.603,283.338 -175.094,283.277 -174.507,283.277C-173.665,283.277 -172.961,283.407 -172.395,283.669C-171.83,283.93 -171.403,284.285 -171.115,284.733C-170.827,285.181 -170.683,285.687 -170.683,286.253C-170.683,286.818 -170.841,287.365 -171.155,287.893C-171.47,288.421 -171.947,288.941 -172.587,289.453L-174.683,291.133L-170.843,291.133C-170.779,291.239 -170.718,291.386 -170.659,291.573C-170.601,291.759 -170.571,291.959 -170.571,292.173C-170.571,292.557 -170.657,292.831 -170.827,292.997C-170.998,293.162 -171.222,293.245 -171.499,293.245L-177.051,293.245C-177.286,293.085 -177.47,292.877 -177.603,292.621C-177.737,292.365 -177.803,292.071 -177.803,291.741C-177.803,291.378 -177.726,291.071 -177.571,290.821C-177.417,290.57 -177.254,290.37 -177.083,290.221L-174.875,288.333C-174.321,287.863 -173.942,287.485 -173.739,287.197C-173.537,286.909 -173.435,286.647 -173.435,286.413C-173.435,286.114 -173.555,285.879 -173.795,285.709C-174.035,285.538 -174.369,285.453 -174.795,285.453C-175.222,285.453 -175.603,285.519 -175.939,285.653C-176.275,285.786 -176.555,285.927 -176.779,286.077C-176.95,285.949 -177.097,285.789 -177.219,285.597C-177.342,285.405 -177.403,285.181 -177.403,284.925Z" style="fill:white;fill-rule:nonzero;"/>
          <path id="year020" d="M-163.611,288.381C-163.611,287.751 -163.673,287.218 -163.795,286.781C-163.918,286.343 -164.097,286.01 -164.331,285.781C-164.566,285.551 -164.849,285.437 -165.179,285.437C-165.51,285.437 -165.79,285.551 -166.019,285.781C-166.249,286.01 -166.422,286.343 -166.539,286.781C-166.657,287.218 -166.715,287.751 -166.715,288.381C-166.715,289.383 -166.582,290.127 -166.315,290.613C-166.049,291.098 -165.67,291.341 -165.179,291.341C-164.678,291.341 -164.291,291.098 -164.019,290.613C-163.747,290.127 -163.611,289.383 -163.611,288.381ZM-165.163,293.501C-166.006,293.501 -166.75,293.309 -167.395,292.925C-168.041,292.541 -168.545,291.97 -168.907,291.213C-169.27,290.455 -169.451,289.511 -169.451,288.381C-169.451,287.282 -169.27,286.354 -168.907,285.597C-168.545,284.839 -168.041,284.263 -167.395,283.869C-166.75,283.474 -166.006,283.277 -165.163,283.277C-164.331,283.277 -163.593,283.474 -162.947,283.869C-162.302,284.263 -161.795,284.839 -161.427,285.597C-161.059,286.354 -160.875,287.282 -160.875,288.381C-160.875,289.511 -161.059,290.455 -161.427,291.213C-161.795,291.97 -162.302,292.541 -162.947,292.925C-163.593,293.309 -164.331,293.501 -165.163,293.501Z" style="fill:white;fill-rule:nonzero;"/>
          <path id="year032" d="M-159.595,284.925C-159.595,284.551 -159.475,284.245 -159.235,284.005C-158.995,283.765 -158.659,283.583 -158.227,283.461C-157.795,283.338 -157.286,283.277 -156.699,283.277C-155.857,283.277 -155.153,283.407 -154.587,283.669C-154.022,283.93 -153.595,284.285 -153.307,284.733C-153.019,285.181 -152.875,285.687 -152.875,286.253C-152.875,286.818 -153.033,287.365 -153.347,287.893C-153.662,288.421 -154.139,288.941 -154.779,289.453L-156.875,291.133L-153.035,291.133C-152.971,291.239 -152.91,291.386 -152.851,291.573C-152.793,291.759 -152.763,291.959 -152.763,292.173C-152.763,292.557 -152.849,292.831 -153.019,292.997C-153.19,293.162 -153.414,293.245 -153.691,293.245L-159.243,293.245C-159.478,293.085 -159.662,292.877 -159.795,292.621C-159.929,292.365 -159.995,292.071 -159.995,291.741C-159.995,291.378 -159.918,291.071 -159.763,290.821C-159.609,290.57 -159.446,290.37 -159.275,290.221L-157.067,288.333C-156.513,287.863 -156.134,287.485 -155.931,287.197C-155.729,286.909 -155.627,286.647 -155.627,286.413C-155.627,286.114 -155.747,285.879 -155.987,285.709C-156.227,285.538 -156.561,285.453 -156.987,285.453C-157.414,285.453 -157.795,285.519 -158.131,285.653C-158.467,285.786 -158.747,285.927 -158.971,286.077C-159.142,285.949 -159.289,285.789 -159.411,285.597C-159.534,285.405 -159.595,285.181 -159.595,284.925Z" style="fill:white;fill-rule:nonzero;"/>
          <path id="year042" d="M-151.243,284.925C-151.243,284.551 -151.123,284.245 -150.883,284.005C-150.643,283.765 -150.307,283.583 -149.875,283.461C-149.443,283.338 -148.934,283.277 -148.347,283.277C-147.505,283.277 -146.801,283.407 -146.235,283.669C-145.67,283.93 -145.243,284.285 -144.955,284.733C-144.667,285.181 -144.523,285.687 -144.523,286.253C-144.523,286.818 -144.681,287.365 -144.995,287.893C-145.31,288.421 -145.787,288.941 -146.427,289.453L-148.523,291.133L-144.683,291.133C-144.619,291.239 -144.558,291.386 -144.499,291.573C-144.441,291.759 -144.411,291.959 -144.411,292.173C-144.411,292.557 -144.497,292.831 -144.667,292.997C-144.838,293.162 -145.062,293.245 -145.339,293.245L-150.891,293.245C-151.126,293.085 -151.31,292.877 -151.443,292.621C-151.577,292.365 -151.643,292.071 -151.643,291.741C-151.643,291.378 -151.566,291.071 -151.411,290.821C-151.257,290.57 -151.094,290.37 -150.923,290.221L-148.715,288.333C-148.161,287.863 -147.782,287.485 -147.579,287.197C-147.377,286.909 -147.275,286.647 -147.275,286.413C-147.275,286.114 -147.395,285.879 -147.635,285.709C-147.875,285.538 -148.209,285.453 -148.635,285.453C-149.062,285.453 -149.443,285.519 -149.779,285.653C-150.115,285.786 -150.395,285.927 -150.619,286.077C-150.79,285.949 -150.937,285.789 -151.059,285.597C-151.182,285.405 -151.243,285.181 -151.243,284.925Z" style="fill:white;fill-rule:nonzero;"/>
        </g>
      </g>
    </g>
  </g>
  <defs>
    <style>
      @font-face {
        font-family: "Baloo Da 2";
        font-style: normal;
        font-weight: 400;
        src: url(https://fonts.googleapis.com/css2?family=Baloo+Da+2:wght@400;) format("woff2");
      }
      @font-face {
        font-family: "Baloo Da 2";
        font-style: normal;
        font-weight: 800;
        src: url(https://fonts.googleapis.com/css2?family=Baloo+Da+2:wght@800;) format("woff2");
      }
    </style>
  </defs>
</svg>
